<?xml version="1.0" standalone="no"?>
<!DOCTYPE svg PUBLIC "-//W3C//DTD SVG 20010904//EN"
 "http://www.w3.org/TR/2001/REC-SVG-20010904/DTD/svg10.dtd">
<svg version="1.0" xmlns="http://www.w3.org/2000/svg"
 width="500.000000pt" height="500.000000pt" viewBox="0 0 500.000000 500.000000"
 preserveAspectRatio="xMidYMid meet">

<g transform="translate(0.000000,500.000000) scale(0.100000,-0.100000)"
fill="#000000" stroke="none">
<path d="M0 2500 l0 -2500 2500 0 2500 0 0 2500 0 2500 -2500 0 -2500 0 0
-2500z m2523 1393 c-7 -2 -19 -2 -25 0 -7 3 -2 5 12 5 14 0 19 -2 13 -5z
m-200 -10 c-7 -2 -19 -2 -25 0 -7 3 -2 5 12 5 14 0 19 -2 13 -5z m300 0 c-13
-2 -35 -2 -50 0 -16 2 -5 4 22 4 28 0 40 -2 28 -4z m-376 -9 c-3 -3 -12 -4
-19 -1 -8 3 -5 6 6 6 11 1 17 -2 13 -5z m446 -1 c-7 -2 -21 -2 -30 0 -10 3 -4
5 12 5 17 0 24 -2 18 -5z m-506 -9 c-3 -3 -12 -4 -19 -1 -8 3 -5 6 6 6 11 1
17 -2 13 -5z m593 -4 c20 -6 21 -8 5 -8 -11 0 -33 4 -50 8 -27 7 -27 8 -5 8
14 0 36 -4 50 -8z m57 -16 c-3 -3 -12 -4 -19 -1 -8 3 -5 6 6 6 11 1 17 -2 13
-5z m190 -64 c93 -40 257 -132 268 -150 4 -6 -17 5 -47 23 -72 47 -207 114
-298 149 -41 16 -61 26 -45 23 17 -4 71 -24 122 -45z m-539 -93 c19 -39 -5
-77 -48 -77 -30 0 -30 1 -30 56 l0 55 32 -3 c24 -2 36 -10 46 -31z m-254 -13
c22 -21 20 -57 -3 -78 -48 -44 -122 15 -87 70 19 28 66 33 90 8z m655 -25 c33
-12 43 -32 14 -27 -13 2 -22 -9 -32 -39 -9 -24 -19 -43 -23 -43 -11 0 -10 22
3 59 10 28 9 34 -7 46 -16 12 -16 14 -3 15 9 0 30 -5 48 -11z m-1229 -3 c0 -2
-8 -10 -17 -17 -16 -13 -17 -12 -4 4 13 16 21 21 21 13z m-40 -30 c0 -2 -8
-10 -17 -17 -16 -13 -17 -12 -4 4 13 16 21 21 21 13z m1805 -90 c45 -44 46
-46 6 -11 -25 22 -64 55 -86 73 -33 28 -34 30 -6 11 18 -12 57 -45 86 -73z
m-1453 67 c36 -32 13 -95 -35 -95 -36 0 -57 19 -57 53 0 52 53 77 92 42z
m-402 -16 c0 -2 -10 -12 -22 -23 l-23 -19 19 23 c18 21 26 27 26 19z m1570
-46 c24 -46 0 -91 -49 -91 -35 0 -51 17 -51 55 0 40 16 55 57 55 22 0 36 -6
43 -19z m-1420 -51 c0 -5 -7 -13 -16 -18 -12 -7 -13 -11 -5 -16 7 -4 18 -3 26
4 8 6 16 7 19 2 3 -6 -1 -15 -9 -22 -11 -9 -12 -17 -5 -30 27 -50 -3 -38 -40
14 l-30 45 22 15 c26 18 38 20 38 6z m-279 -27 c-5 -10 -24 -31 -42 -48 -29
-27 -29 -25 7 17 42 51 50 58 35 31z m2129 -68 c13 -14 21 -25 18 -25 -2 0
-15 11 -28 25 -13 14 -21 25 -18 25 2 0 15 -11 28 -25z m-2200 -19 c0 -2 -8
-10 -17 -17 -16 -13 -17 -12 -4 4 13 16 21 21 21 13z m2107 -141 c-1 -14 -11
-21 -29 -23 -20 -2 -28 -9 -28 -23 0 -12 -5 -19 -12 -16 -7 2 -12 13 -10 25 2
16 -1 19 -18 15 -31 -8 -24 8 23 48 l42 38 17 -22 c10 -12 17 -31 15 -42z
m133 -160 c15 -28 4 -50 -11 -22 -15 26 -32 21 -25 -8 7 -27 -8 -35 -18 -9 -9
24 -27 6 -20 -22 8 -32 -10 -31 -24 1 -7 14 -12 28 -12 30 0 5 83 55 91 55 3
0 12 -11 19 -25z m-1337 -119 c22 -81 21 -88 -2 -50 -44 72 -124 104 -262 104
l-99 0 0 -166 0 -166 30 32 c27 29 34 32 77 28 27 -3 70 -11 96 -19 44 -12 51
-12 79 4 l30 17 -19 -31 c-10 -18 -30 -41 -46 -52 -25 -20 -31 -20 -85 -8 -91
21 -131 24 -147 11 -12 -10 -15 -37 -15 -121 0 -120 9 -155 42 -169 16 -6 -11
-9 -87 -9 -73 0 -103 3 -88 9 36 15 43 68 43 327 0 243 -5 286 -37 311 -14 10
30 12 228 12 l245 0 17 -64z m410 52 c86 -26 131 -101 108 -184 -13 -48 -53
-114 -58 -97 -7 20 -34 3 -28 -18 7 -21 -28 -49 -164 -132 -46 -29 -102 -69
-125 -89 l-41 -37 193 -1 192 0 0 36 c0 36 -14 73 -34 87 -7 5 -3 7 9 5 14 -2
26 -20 40 -60 11 -31 23 -57 28 -58 25 -5 27 10 8 58 -12 29 -21 55 -21 57 0
3 74 5 165 5 181 0 216 -7 253 -55 30 -37 30 -103 0 -140 -12 -15 -53 -43 -92
-61 -42 -19 -62 -33 -50 -33 44 -2 73 -38 100 -129 42 -139 70 -190 107 -200
l32 -8 -27 -18 c-33 -21 -87 -16 -110 12 -26 29 -54 92 -83 189 -15 51 -36
102 -47 113 -33 35 -76 26 -152 -33 l-38 -31 4 -105 c6 -119 10 -134 41 -149
17 -8 -3 -11 -88 -11 -73 0 -103 3 -88 9 38 16 43 41 43 239 l0 191 -215 0
c-240 0 -232 -3 -196 69 21 40 85 101 215 204 102 80 139 142 140 233 1 76
-21 112 -81 133 -61 22 -120 -4 -201 -85 l-62 -63 -15 36 c-20 47 -19 50 12
70 81 54 236 78 326 51z m-1533 -32 c-23 -60 -50 -187 -58 -275 -19 -184 13
-385 88 -563 l28 -68 -31 -15 c-24 -12 -32 -13 -38 -3 -9 14 -44 156 -61 248
-17 96 -14 337 6 450 17 99 64 265 72 257 2 -2 0 -16 -6 -31z m2552 -113 c19
-17 25 -68 8 -78 -6 -4 -10 6 -10 23 0 37 -25 60 -48 45 -24 -14 -27 -44 -7
-59 26 -19 14 -37 -13 -19 -42 30 -20 105 30 105 12 0 30 -7 40 -17z m195
-105 c-3 -8 -6 -5 -6 6 -1 11 2 17 5 13 3 -3 4 -12 1 -19z m10 -50 c-3 -7 -5
-2 -5 12 0 14 2 19 5 13 2 -7 2 -19 0 -25z m10 -55 c-3 -10 -5 -4 -5 12 0 17
2 24 5 18 2 -7 2 -21 0 -30z m10 -75 c-2 -13 -4 -5 -4 17 -1 22 1 32 4 23 2
-10 2 -28 0 -40z m-147 32 c0 -5 -24 -12 -52 -16 -62 -8 -62 -8 -66 5 -3 10
27 17 86 20 17 0 32 -3 32 -9z m157 -257 c-2 -38 -3 -7 -3 67 0 74 1 105 3 68
2 -38 2 -98 0 -135z m-137 59 c0 -51 -55 -69 -75 -24 -5 12 -18 22 -27 22 -10
0 -18 5 -18 10 0 6 27 10 60 10 51 0 60 -3 60 -18z m127 -189 c-3 -10 -5 -4
-5 12 0 17 2 24 5 18 2 -7 2 -21 0 -30z m-155 -32 c9 -8 -2 -61 -13 -61 -5 0
-9 11 -9 25 0 30 -16 33 -23 5 -3 -11 -10 -20 -17 -20 -7 0 -9 8 -5 20 5 14 2
20 -9 20 -9 0 -16 -7 -16 -15 0 -8 -4 -15 -10 -15 -5 0 -10 14 -10 31 l0 31
53 -7 c28 -4 55 -10 59 -14z m145 -23 c-3 -8 -6 -5 -6 6 -1 11 2 17 5 13 3 -3
4 -12 1 -19z m-2617 -334 c0 -8 4 -14 9 -14 5 0 17 -12 27 -27 17 -27 17 -28
-2 -14 -10 7 -6 2 9 -13 15 -14 26 -26 23 -26 -3 0 0 -13 5 -30 6 -16 15 -27
20 -24 5 3 9 0 9 -5 0 -6 6 -11 14 -11 7 0 16 -14 20 -31 4 -22 10 -30 21 -26
8 4 17 2 20 -4 4 -5 11 -6 17 -3 7 4 8 2 4 -5 -6 -9 -11 -9 -21 -1 -20 16 -25
-10 -7 -37 8 -13 11 -23 7 -23 -4 0 -2 -7 5 -15 12 -14 15 -14 31 1 11 10 19
14 19 9 0 -4 7 -2 15 5 8 7 13 16 10 20 -3 5 -1 11 4 14 7 5 8 -22 1 -31 -2
-2 -3 -6 -4 -10 -1 -5 -10 -19 -20 -33 -11 -15 -16 -18 -12 -7 5 14 2 16 -13
8 -10 -6 -21 -8 -25 -6 -3 3 -4 2 -2 -1 2 -3 6 -4 9 -2 10 7 45 -34 41 -47 -8
-19 21 -13 45 9 11 10 18 26 16 37 -2 10 0 21 4 23 4 3 6 -12 5 -32 -1 -20 -3
-37 -4 -37 -1 0 -3 -13 -4 -28 -2 -16 1 -26 8 -24 6 2 11 13 11 24 0 12 3 24
6 27 3 3 5 -8 5 -26 -1 -17 4 -33 10 -35 7 -2 11 7 9 26 l-2 30 63 -32 c35
-17 62 -33 60 -35 -2 -2 -27 8 -55 22 -28 14 -52 26 -54 26 -4 0 -1 -53 3 -57
1 -2 3 -11 4 -20 1 -10 5 -25 10 -33 7 -12 7 -13 -5 -2 -8 7 -14 23 -14 34 0
12 -5 23 -12 25 -8 3 -11 -3 -8 -17 3 -18 -3 -15 -44 19 -60 50 -163 160 -218
232 -51 67 -143 219 -143 237 0 18 42 32 58 20 6 -6 12 -17 12 -24z m205 -279
c1 0 10 7 21 15 15 11 16 11 7 0 -19 -21 -40 -20 -60 3 l-18 22 24 -20 c13
-11 24 -20 26 -20z m392 9 c-3 -3 -12 -4 -19 -1 -8 3 -5 6 6 6 11 1 17 -2 13
-5z m-312 -31 c-2 -10 -4 -19 -5 -20 -2 -2 -3 -11 -4 -20 -2 -32 -16 -45 -32
-32 -13 10 -11 16 12 41 15 15 24 28 20 28 -4 0 -4 5 -1 10 9 15 14 12 10 -7z
m262 -19 c-3 -3 -12 -4 -19 -1 -8 3 -5 6 6 6 11 1 17 -2 13 -5z m-97 -104 c8
-5 11 -10 5 -10 -5 0 -17 5 -25 10 -8 5 -10 10 -5 10 6 0 17 -5 25 -10z m50
-20 c8 -5 11 -10 5 -10 -5 0 -17 5 -25 10 -8 5 -10 10 -5 10 6 0 17 -5 25 -10z
m-4 -58 c-5 -4 -106 46 -106 53 0 3 25 -7 55 -22 30 -15 53 -29 51 -31z m-76
-7 c0 -2 -8 -2 -17 1 -12 4 -10 -1 7 -15 21 -18 22 -20 5 -15 l-20 6 20 -17
c11 -9 29 -23 40 -31 27 -20 -3 -6 -37 18 -15 11 -27 22 -27 26 1 4 0 9 -1 12
-1 3 -3 13 -5 22 -3 15 0 16 16 8 10 -6 19 -13 19 -15z m86 -23 c-5 -4 -86 36
-86 43 0 3 20 -5 45 -17 24 -12 43 -23 41 -26z m44 -78 c0 -2 -9 0 -20 6 -11
6 -20 13 -20 16 0 2 9 0 20 -6 11 -6 20 -13 20 -16z m1445 10 c-11 -9 -74 -43
-140 -75 -119 -58 -260 -105 -339 -114 -35 -4 -37 -3 -11 4 23 7 25 9 10 11
-11 1 -23 2 -27 1 -4 0 -5 6 -2 14 4 8 9 13 13 11 3 -2 15 0 26 5 17 7 16 8
-8 8 -16 1 -26 5 -22 11 4 6 10 8 15 5 4 -3 13 2 20 10 9 11 35 15 100 15 106
0 212 26 306 74 77 39 89 43 59 20z m-1379 -72 c-5 -4 -66 26 -66 33 0 3 16
-3 35 -12 19 -9 33 -18 31 -21z"/>
<path d="M2430 3664 c0 -28 3 -35 18 -32 21 4 29 47 10 59 -23 15 -28 10 -28
-27z"/>
<path d="M2163 3654 c-15 -39 38 -67 60 -32 8 12 7 21 -2 32 -17 21 -50 20
-58 0z"/>
<path d="M1910 3575 c-18 -22 -8 -50 19 -50 32 0 49 28 32 49 -17 20 -35 20
-51 1z"/>
<path d="M3070 3516 c-27 -33 18 -72 48 -42 13 13 14 20 6 34 -15 23 -38 26
-54 8z"/>
<path d="M3427 3244 c-9 -10 2 -24 19 -24 8 0 14 7 14 15 0 15 -21 21 -33 9z"/>
<path d="M2857 2553 c-4 -3 -7 -84 -7 -179 l0 -173 78 52 c42 28 97 65 122 80
116 72 119 191 5 217 -46 11 -188 13 -198 3z"/>
<path d="M3743 2388 c2 -7 10 -13 17 -13 7 0 15 6 18 13 2 7 -5 12 -18 12 -13
0 -20 -5 -17 -12z"/>
<path d="M1515 1509 c-3 -4 2 -6 10 -5 21 3 28 13 10 13 -9 0 -18 -4 -20 -8z"/>
<path d="M1575 1430 c-10 -11 -23 -17 -29 -13 -6 3 0 -6 13 -20 14 -15 25 -27
26 -27 1 0 1 12 0 28 -1 15 2 33 8 40 15 19 2 14 -18 -8z m2 -25 c0 -8 -4 -12
-9 -9 -5 3 -6 10 -3 15 9 13 12 11 12 -6z"/>
<path d="M1606 1372 c-3 -5 1 -15 8 -21 11 -10 14 -9 12 3 -3 21 -13 29 -20
18z"/>
<path d="M1551 1476 c-8 -10 -9 -16 -1 -21 5 -3 10 -5 11 -3 4 18 7 38 4 38
-1 0 -8 -6 -14 -14z"/>
</g>
</svg>
